<?xml version="1.0" encoding="UTF-8"?>
<svg width="960px" height="268px" viewBox="0 0 960 268" version="1.1" xmlns="http://www.w3.org/2000/svg" xmlns:xlink="http://www.w3.org/1999/xlink">
    <!-- Generator: Sketch 51.1 (57501) - http://www.bohemiancoding.com/sketch -->
    <title>fastlabel-logo-2</title>
    <desc>Created with Sketch.</desc>
    <defs></defs>
    <g id="Page-1" stroke="none" stroke-width="1" fill="none" fill-rule="evenodd">
        <path d="M519.316987,101 L517.363641,101 C516.782905,101.08 516.225026,101.12 515.69,101.12 C513.956658,101.12 512.136676,101.726661 510.23,102.94 C508.323324,104.153339 506.850005,105.626658 505.81,107.36 L441.98,218.12 C440.679993,220.373345 439.293341,221.5 437.82,221.5 C437.039996,221.5 436.390003,221.066671 435.87,220.2 L418.71,190.95 C418.189997,190.083329 417.93,189.000007 417.93,187.7 C417.93,185.186654 418.579993,182.846677 419.88,180.68 L465.864478,101 L255.266498,101 C254.697191,101.08 254.145026,101.12 253.61,101.12 C251.876658,101.12 250.03501,101.726661 248.085,102.94 C246.13499,104.153339 244.683338,105.626658 243.73,107.36 L179.9,217.99 C178.599993,220.243345 177.213341,221.37 175.74,221.37 C174.959996,221.37 174.310003,220.980004 173.79,220.2 L156.63,190.82 C156.109997,190.039996 155.85,188.956674 155.85,187.57 C155.85,185.143321 156.499993,182.803345 157.8,180.55 L218.12,76.16 C219.073338,74.426658 220.503324,72.9533394 222.41,71.74 C224.316676,70.5266606 226.136658,69.92 227.87,69.92 L271.55,69.92 C272.143618,69.92 272.680765,69.9466666 273.161439,70 L329.043058,70 L325.278364,76.047053 L269.645593,76.047053 C269.094261,76.1223511 268.559064,76.16 268.04,76.16 C266.306658,76.16 264.46501,76.7666606 262.515,77.98 C260.56499,79.1933394 259.113338,80.666658 258.16,82.4 L254.52,88.64 C253.91333,89.7666723 253.61,90.8066619 253.61,91.76 C253.61,93.8400104 254.779988,94.88 257.12,94.88 C257.847031,94.88 258.489354,94.9199999 259.046969,95 L469.327164,95 L480.2,76.16 C481.153338,74.426658 482.60499,72.9533394 484.555,71.74 C486.50501,70.5266606 488.346658,69.92 490.08,69.92 L521.28,69.92 C523.620012,69.92 524.79,70.9599896 524.79,73.04 C524.79,73.9933381 524.48667,75.0333277 523.88,76.16 L516.6,88.64 C515.99333,89.7666723 515.69,90.8066619 515.69,91.76 C515.69,93.8400104 516.903321,94.88 519.33,94.88 C520.057031,94.88 520.699354,94.9199999 521.256969,95 L522.781089,95 L519.316987,101 Z M527.958238,169 L535.889375,169 L549.88,144.8 C550.920005,143.066658 552.393324,141.593339 554.3,140.38 C556.206676,139.166661 558.026658,138.56 559.76,138.56 L603.44,138.56 C605.173342,138.56 606.993324,137.953339 608.9,136.74 C610.806676,135.526661 612.279995,134.053342 613.32,132.32 L620.47,119.84 C621.07667,118.713328 621.38,117.673338 621.38,116.72 C621.38,114.63999 620.210012,113.6 617.87,113.6 C616.136658,113.6 614.316676,114.206661 612.41,115.42 C610.503324,116.633339 609.030005,118.106658 607.99,119.84 L604.35,126.08 C603.396662,127.813342 601.94501,129.286661 599.995,130.5 C598.04499,131.713339 596.246675,132.32 594.6,132.32 L563.4,132.32 C560.973321,132.32 559.76,131.28001 559.76,129.2 C559.76,128.246662 560.06333,127.206672 560.67,126.08 L567.95,113.6 C568.903338,111.866658 570.35499,110.393339 572.305,109.18 C574.25501,107.966661 576.096658,107.36 577.83,107.36 L665.19,107.36 C667.530012,107.36 668.7,108.39999 668.7,110.48 C668.7,111.433338 668.39667,112.473328 667.79,113.6 L635.729815,169 L641.839552,169 L701.85,65.24 C703.150007,62.9866554 704.493326,61.86 705.88,61.86 C706.660004,61.86 707.309997,62.2499961 707.83,63.03 L725.12,92.41 C725.640003,93.276671 725.9,94.4466593 725.9,95.92 C725.9,98.0866775 725.380005,100.079991 724.34,101.9 C723.819997,102.766671 723.56,103.589996 723.56,104.37 C723.56,106.363343 724.859987,107.36 727.46,107.36 L771.14,107.36 C773.480012,107.36 774.65,108.39999 774.65,110.48 C774.65,111.433338 774.34667,112.473328 773.74,113.6 L741.679815,169 L749.089815,169 L781.15,113.6 C782.103338,111.866658 783.55499,110.393339 785.505,109.18 C787.45501,107.966661 789.296658,107.36 791.03,107.36 L878.39,107.36 C880.730012,107.36 881.9,108.39999 881.9,110.48 C881.9,111.433338 881.59667,112.473328 880.99,113.6 L866.56,138.56 C865.606662,140.293342 864.15501,141.766661 862.205,142.98 C860.25499,144.193339 858.413342,144.8 856.68,144.8 L813,144.8 C811.266658,144.8 809.446676,145.406661 807.54,146.62 C805.633324,147.833339 804.203338,149.306658 803.25,151.04 L795.97,163.52 C795.36333,164.646672 795.06,165.686662 795.06,166.64 C795.06,167.693423 795.360093,168.480088 795.960283,169 L802.065991,169 C802.728765,168.722604 803.405101,168.369271 804.095,167.94 C806.04501,166.726661 807.496662,165.253342 808.45,163.52 L812.09,157.28 C813.043338,155.546658 814.49499,154.073339 816.445,152.86 C818.39501,151.646661 820.236658,151.04 821.97,151.04 L853.17,151.04 C855.510012,151.04 856.68,152.07999 856.68,154.16 C856.68,155.113338 856.37667,156.153328 855.77,157.28 L848.933333,169 L856.339015,169 L895.55,101.12 L916.35,65.24 C917.650007,62.9866554 918.993326,61.86 920.38,61.86 C921.160004,61.86 921.809997,62.2499961 922.33,63.03 L939.62,92.41 C940.140003,93.276671 940.4,94.4466593 940.4,95.92 C940.4,98.0866775 939.880005,100.079991 938.84,101.9 L900.019693,169 L959.95548,169 L955.54921,176 L517.64,176 L486.44,176 C484.013321,176 482.8,174.96001 482.8,172.88 C482.8,171.926662 483.146663,170.886672 483.84,169.76 L523.49,101.12 L544.16,65.24 C545.460006,62.9866554 546.846659,61.86 548.32,61.86 C549.100004,61.86 549.706664,62.2499961 550.14,63.03 L567.43,92.41 C567.950003,93.276671 568.21,94.4466593 568.21,95.92 C568.21,98.0866775 567.690005,100.079991 566.65,101.9 L527.958238,169 Z M588.865991,169 C589.528765,168.722604 590.205101,168.369271 590.895,167.94 C592.84501,166.726661 594.296662,165.253342 595.25,163.52 L602.53,151.04 C603.13667,149.913328 603.44,148.873338 603.44,147.92 C603.44,145.83999 602.226679,144.8 599.8,144.8 C598.066658,144.8 596.246676,145.406661 594.34,146.62 C592.433324,147.833339 591.003338,149.306658 590.05,151.04 L582.77,163.52 C582.16333,164.646672 581.86,165.686662 581.86,166.64 C581.86,167.693423 582.160093,168.480088 582.760283,169 L588.865991,169 Z M694.815991,169 C695.478765,168.722604 696.155101,168.369271 696.845,167.94 C698.79501,166.726661 700.246662,165.253342 701.2,163.52 L726.42,119.84 C727.02667,118.713328 727.33,117.673338 727.33,116.72 C727.33,114.63999 726.160012,113.6 723.82,113.6 C722.086658,113.6 720.266676,114.206661 718.36,115.42 C716.453324,116.633339 714.980005,118.106658 713.94,119.84 L688.72,163.52 C688.11333,164.646672 687.81,165.686662 687.81,166.64 C687.81,167.693423 688.110093,168.480088 688.710283,169 L694.815991,169 Z M369.300283,169 L375.405991,169 C376.068765,168.722604 376.745101,168.369271 377.435,167.94 C379.38501,166.726661 380.836662,165.253342 381.79,163.52 L389.07,151.04 C389.67667,149.913328 389.98,148.873338 389.98,147.92 C389.98,146.366619 389.303293,145.39329 387.949863,145 L328.908704,145 L314.58,169.76 C313.626662,171.493342 312.17501,172.966661 310.225,174.18 C308.27499,175.393339 306.476675,176 304.83,176 L217.47,176 C215.043321,176 213.83,174.96001 213.83,172.88 C213.83,171.926662 214.13333,170.886672 214.74,169.76 L229.17,144.8 C230.210005,143.066658 231.683324,141.593339 233.59,140.38 C235.496676,139.166661 237.316658,138.56 239.05,138.56 L282.73,138.56 C284.463342,138.56 286.283324,137.953339 288.19,136.74 C290.096676,135.526661 291.569995,134.053342 292.61,132.32 L299.76,119.84 C300.36667,118.713328 300.67,117.673338 300.67,116.72 C300.67,114.63999 299.500012,113.6 297.16,113.6 C295.426658,113.6 293.606676,114.206661 291.7,115.42 C289.793324,116.633339 288.320005,118.106658 287.28,119.84 L283.64,126.08 C282.686662,127.813342 281.23501,129.286661 279.285,130.5 C277.33499,131.713339 275.536675,132.32 273.89,132.32 L242.69,132.32 C240.263321,132.32 239.05,131.28001 239.05,129.2 C239.05,128.246662 239.35333,127.206672 239.96,126.08 L247.24,113.6 C248.193338,111.866658 249.64499,110.393339 251.595,109.18 C253.54501,107.966661 255.386658,107.36 257.12,107.36 L344.48,107.36 C346.820012,107.36 347.99,108.39999 347.99,110.48 C347.99,111.433338 347.68667,112.473328 347.08,113.6 L332.380926,139 L339.836393,139 C339.905683,138.854832 339.980218,138.708166 340.06,138.56 L354.49,113.6 C355.443338,111.866658 356.89499,110.393339 358.845,109.18 C360.79501,107.966661 362.636658,107.36 364.37,107.36 L451.73,107.36 C454.070012,107.36 455.24,108.39999 455.24,110.48 C455.24,111.433338 454.93667,112.473328 454.33,113.6 L447.05,126.08 C446.096662,127.813342 444.64501,129.286661 442.695,130.5 C440.74499,131.713339 438.946675,132.32 437.3,132.32 L406.1,132.32 C403.673321,132.32 402.46,131.28001 402.46,129.2 C402.46,128.246662 402.76333,127.206672 403.37,126.08 L407.01,119.84 C407.61667,118.713328 407.92,117.673338 407.92,116.72 C407.92,114.63999 406.750012,113.6 404.41,113.6 C402.676658,113.6 400.856676,114.206661 398.95,115.42 C397.043324,116.633339 395.570005,118.106658 394.53,119.84 L387.38,132.32 C386.686663,133.446672 386.34,134.486662 386.34,135.44 C386.34,137.52001 387.553321,138.56 389.98,138.56 L433.66,138.56 C436.086679,138.56 437.3,139.59999 437.3,141.68 C437.3,142.633338 436.953337,143.673328 436.26,144.8 L421.83,169.76 C420.876662,171.493342 419.42501,172.966661 417.475,174.18 C415.52499,175.393339 413.726675,176 412.08,176 L324.72,176 C322.293321,176 321.08,174.96001 321.08,172.88 C321.08,171.926662 321.38333,170.886672 321.99,169.76 L329.27,157.28 C330.223338,155.546658 331.67499,154.073339 333.625,152.86 C335.57501,151.646661 337.416658,151.04 339.15,151.04 L370.35,151.04 C372.690012,151.04 373.86,152.07999 373.86,154.16 C373.86,155.113338 373.55667,156.153328 372.95,157.28 L369.31,163.52 C368.70333,164.646672 368.4,165.686662 368.4,166.64 C368.4,167.693423 368.700093,168.480088 369.300283,169 Z M262.050283,169 L268.155991,169 C268.818765,168.722604 269.495101,168.369271 270.185,167.94 C272.13501,166.726661 273.586662,165.253342 274.54,163.52 L281.82,151.04 C282.42667,149.913328 282.73,148.873338 282.73,147.92 C282.73,146.366619 282.053293,145.39329 280.699863,145 L277.337638,145 C276.140491,145.268882 274.904617,145.80888 273.63,146.62 C271.723324,147.833339 270.293338,149.306658 269.34,151.04 L262.06,163.52 C261.45333,164.646672 261.15,165.686662 261.15,166.64 C261.15,167.693423 261.450093,168.480088 262.050283,169 Z M821.19,119.84 L814.04,132.32 C813.346663,133.446672 813,134.486662 813,135.44 C813,137.52001 814.213321,138.56 816.64,138.56 C818.373342,138.56 820.193324,137.953339 822.1,136.74 C824.006676,135.526661 825.479995,134.053342 826.52,132.32 L833.67,119.84 C834.27667,118.713328 834.58,117.673338 834.58,116.72 C834.58,114.63999 833.410012,113.6 831.07,113.6 C829.336658,113.6 827.516676,114.206661 825.61,115.42 C823.703324,116.633339 822.230005,118.106658 821.19,119.84 Z" id="Combined-Shape" fill="#FFFFFF"></path>
        <path d="M189.095116,51.047053 L178.27817,69.757158 L96.778345,69.757158 C94.016921,69.757158 91.778345,71.995734 91.778345,74.757158 L91.778345,101.117871 C91.778345,103.879295 94.016921,106.117871 96.778345,106.117871 L159.272271,106.117871 L146.679162,128 L94.0235265,128 C92.3536789,128 91,129.353679 91,131.023526 C91,132.693374 92.3536789,134.047053 94.0235265,134.047053 L143.199098,134.047053 L132.867224,152 L94.0235265,152 C92.3536789,152 91,153.353679 91,155.023526 C91,156.693374 92.3536789,158.047053 94.0235265,158.047053 L129.38716,158.047053 L119.171241,175.798512 L96.778345,175.798512 C94.016921,175.798512 91.778345,178.037089 91.778345,180.798512 L91.778345,221.144399 L66.229076,265.119325 C64.841841,267.50701 61.781663,268.318034 59.393978,266.930798 C58.643915,266.495014 58.020133,265.871584 57.583925,265.121767 L33.356268,223.47575 C32.467961,221.948799 32,220.213783 32,218.447241 L32,18.903799 C32,9.000322 40.000207,0.957128 49.903542,0.904058 L218.607148,0 L205.888202,22 L94.0235265,22 C92.3536789,22 91,23.3536789 91,25.0235265 C91,26.6933741 92.3536789,28.047053 94.0235265,28.047053 L202.392196,28.047053 L192.591122,45 L94.0235265,45 C92.3536789,45 91,46.3536789 91,48.0235265 C91,49.6933741 92.3536789,51.047053 94.0235265,51.047053 L189.095116,51.047053 Z M49.5,228 L58.877674,245.430339 C59.979464,245.810113 60.91662,246 61.689143,246 C62.461665,246 63.625092,245.810113 65.179422,245.430339 L73.878286,228 C68.490409,228.499547 64.427361,228.749321 61.689143,228.749321 C58.950924,228.749321 54.887877,228.499547 49.5,228 Z" id="Combined-Shape" fill="#FFFFFF" fill-rule="nonzero"></path>
    </g>
</svg>