<?xml version="1.0" standalone="no"?>
<!DOCTYPE svg PUBLIC "-//W3C//DTD SVG 20010904//EN"
 "http://www.w3.org/TR/2001/REC-SVG-20010904/DTD/svg10.dtd">
<svg version="1.0" xmlns="http://www.w3.org/2000/svg"
 width="288.000000pt" height="175.000000pt" viewBox="0 0 288.000000 175.000000"
 preserveAspectRatio="xMidYMid meet">

<g transform="translate(0.000000,175.000000) scale(0.100000,-0.100000)"
fill="#000000" stroke="none">
<path d="M509 1367 l-284 -162 0 -328 0 -329 280 -163 280 -164 45 25 c25 14
153 86 285 162 l240 137 0 328 0 329 -240 140 c-132 77 -258 150 -281 163
l-41 24 -284 -162z m404 -118 c165 -54 270 -199 270 -374 0 -175 -105 -320
-270 -374 -257 -85 -516 103 -516 374 0 271 259 459 516 374z"/>
<path d="M480 874 l0 -131 25 5 c23 4 25 9 25 53 l0 49 50 0 c86 0 127 64 80
123 -18 23 -28 26 -100 29 l-80 3 0 -131z m141 70 c21 -25 -1 -49 -50 -52 -41
-3 -41 -3 -41 32 0 35 1 36 39 36 23 0 44 -6 52 -16z"/>
<path d="M750 993 c-31 -12 -50 -37 -50 -65 0 -21 5 -28 20 -28 11 0 20 6 20
13 0 8 9 22 21 33 15 14 24 16 37 8 40 -25 24 -62 -40 -95 -36 -19 -68 -62
-68 -94 0 -12 15 -15 90 -15 83 0 90 1 90 20 0 18 -7 20 -60 20 -33 0 -60 4
-60 8 0 5 22 21 50 36 71 39 91 89 53 135 -18 22 -75 35 -103 24z"/>
<path d="M900 876 l0 -124 25 -4 c24 -5 25 -3 25 48 l0 54 53 0 c64 0 97 27
97 78 0 55 -28 72 -120 72 l-80 0 0 -124z m147 68 c11 -28 -11 -49 -56 -52
-41 -3 -41 -3 -41 32 0 36 0 36 45 36 33 0 47 -5 52 -16z"/>
<path d="M1400 1115 c0 -88 1 -95 20 -95 17 0 20 7 20 40 l0 40 43 0 c50 0 67
13 67 51 0 39 -33 59 -97 59 l-53 0 0 -95z m110 50 c17 -21 3 -35 -36 -35 -30
0 -34 3 -34 25 0 21 5 25 29 25 16 0 34 -7 41 -15z"/>
<path d="M1587 1142 c-23 -25 -22 -85 1 -105 33 -30 112 -13 112 24 0 12 -24
11 -37 -2 -14 -14 -55 -8 -61 9 -2 8 11 12 47 12 47 0 51 2 51 23 0 51 -78 77
-113 39z m78 -22 c4 -6 -7 -10 -24 -10 -17 0 -31 5 -31 10 0 6 11 10 24 10 14
0 28 -4 31 -10z"/>
<path d="M1737 1142 c-23 -25 -22 -85 1 -105 25 -22 75 -21 95 1 22 24 21 32
-3 32 -11 0 -20 -5 -20 -11 0 -14 -52 -7 -58 9 -2 8 11 12 47 12 47 0 51 2 51
23 0 51 -78 77 -113 39z m73 -22 c0 -5 -14 -10 -31 -10 -17 0 -28 4 -24 10 3
6 17 10 31 10 13 0 24 -4 24 -10z"/>
<path d="M1870 1089 c0 -54 3 -69 14 -69 11 0 16 14 18 48 2 38 7 49 26 57 36
16 27 34 -18 33 l-40 0 0 -69z"/>
<path d="M1400 885 c0 -88 1 -95 20 -95 17 0 20 7 20 40 0 39 1 40 36 40 51 0
74 15 74 50 0 45 -23 60 -91 60 l-59 0 0 -95z m110 50 c17 -21 3 -35 -36 -35
-30 0 -34 3 -34 25 0 21 5 25 29 25 16 0 34 -7 41 -15z"/>
<path d="M1900 955 c0 -22 -4 -25 -34 -25 -58 0 -86 -67 -50 -118 14 -20 23
-23 67 -20 l52 3 3 93 c3 87 2 92 -18 92 -15 0 -20 -7 -20 -25z m-5 -95 c0
-28 -4 -36 -22 -38 -14 -2 -26 4 -33 17 -15 29 4 63 33 59 18 -2 22 -10 22
-38z"/>
<path d="M2312 963 c2 -10 10 -18 18 -18 8 0 16 8 18 18 2 12 -3 17 -18 17
-15 0 -20 -5 -18 -17z"/>
<path d="M2235 933 c-3 -15 -2 -29 2 -30 5 -2 8 -17 5 -33 -7 -50 5 -80 33
-80 16 0 25 6 25 15 0 8 -4 15 -10 15 -5 0 -10 18 -10 40 0 22 5 40 10 40 6 0
10 7 10 15 0 8 -4 15 -10 15 -5 0 -10 7 -10 15 0 27 -37 17 -45 -12z"/>
<path d="M1572 863 c2 -55 6 -68 21 -71 14 -3 17 4 17 48 0 43 3 53 20 57 37
10 23 33 -20 33 l-41 0 3 -67z"/>
<path d="M1683 922 c-17 -11 -33 -59 -26 -79 19 -55 88 -73 117 -31 22 30 20
81 -2 101 -19 18 -68 22 -89 9z m73 -47 c8 -31 -12 -57 -40 -53 -13 2 -22 12
-24 26 -5 36 5 52 32 52 19 0 27 -7 32 -25z"/>
<path d="M1960 871 c0 -70 10 -81 73 -79 l47 1 0 68 c0 55 -3 69 -15 69 -11 0
-15 -11 -15 -39 0 -55 -8 -71 -36 -71 -22 0 -24 4 -24 55 0 42 -3 55 -15 55
-12 0 -15 -13 -15 -59z"/>
<path d="M2117 912 c-23 -25 -22 -85 1 -105 27 -25 78 -22 96 5 9 12 16 26 16
30 0 14 -31 8 -36 -7 -9 -22 -51 -19 -59 5 -10 32 4 60 30 60 13 0 25 -5 27
-11 2 -6 12 -10 21 -8 16 4 16 6 2 27 -20 28 -75 30 -98 4z"/>
<path d="M2312 863 c2 -55 6 -68 21 -71 15 -3 17 5 17 67 0 65 -2 71 -20 71
-19 0 -21 -5 -18 -67z"/>
<path d="M2386 914 c-22 -22 -21 -87 2 -107 25 -22 75 -21 95 1 23 25 22 85
-1 105 -23 21 -76 22 -96 1z m79 -34 c11 -36 -4 -62 -33 -58 -28 3 -40 32 -28
64 8 22 54 18 61 -6z"/>
<path d="M2520 860 c0 -63 2 -71 18 -68 13 2 18 15 20 55 2 35 8 53 18 57 27
10 34 -3 34 -60 0 -42 3 -54 15 -54 13 0 15 12 13 68 l-3 67 -57 3 -58 3 0
-71z"/>
<path d="M1400 655 l0 -95 65 0 c51 0 65 3 65 15 0 11 -12 15 -45 15 l-45 0 0
80 c0 73 -2 80 -20 80 -19 0 -20 -7 -20 -95z"/>
<path d="M1540 735 c0 -8 9 -15 20 -15 11 0 20 7 20 15 0 8 -9 15 -20 15 -11
0 -20 -7 -20 -15z"/>
<path d="M1542 633 c2 -53 6 -68 18 -68 12 0 16 15 18 68 3 62 1 67 -18 67
-19 0 -21 -5 -18 -67z"/>
<path d="M1623 692 c-17 -11 -33 -59 -26 -79 3 -10 13 -26 21 -35 28 -33 102
-16 102 22 0 24 -25 27 -34 4 -3 -9 -15 -14 -28 -12 -17 2 -24 11 -26 34 -4
42 21 64 46 40 22 -19 42 -21 42 -3 0 31 -63 50 -97 29z"/>
<path d="M1746 678 c-36 -51 -5 -118 53 -118 29 0 61 22 61 41 0 12 -27 12
-35 -1 -9 -15 -41 -12 -55 5 -11 13 -5 15 45 15 l57 0 -7 27 c-10 42 -24 53
-66 53 -28 0 -42 -6 -53 -22z m74 -13 c11 -13 8 -15 -19 -15 -31 0 -42 14 -18
23 20 9 24 8 37 -8z"/>
<path d="M1890 630 c0 -56 3 -70 15 -70 11 0 15 12 15 49 0 32 5 53 15 61 23
19 33 3 37 -55 2 -36 7 -50 18 -50 19 0 27 100 9 121 -7 9 -30 14 -60 14 l-49
0 0 -70z"/>
<path d="M2040 685 c-19 -23 -7 -49 30 -61 41 -14 52 -34 17 -34 -14 0 -27 5
-29 11 -2 6 -12 10 -21 8 -16 -4 -16 -6 -2 -26 29 -42 122 -21 113 25 -3 16
-18 27 -63 43 -22 8 -26 12 -15 19 8 5 21 5 31 -1 25 -13 39 -11 39 5 0 28
-79 37 -100 11z"/>
<path d="M2176 678 c-36 -51 -5 -118 53 -118 29 0 61 22 61 41 0 12 -27 12
-35 -1 -9 -15 -41 -12 -55 5 -11 13 -5 15 44 15 l56 0 -6 28 c-10 42 -23 52
-65 52 -28 0 -42 -6 -53 -22z m74 -13 c11 -13 8 -15 -19 -15 -31 0 -42 14 -18
23 20 9 24 8 37 -8z"/>
</g>
</svg>
